<svg xmlns="http://www.w3.org/2000/svg" xml:space="preserve" id="Ebene_1" width="744.08" height="156.94" x="0" y="0" version="1.1"><style id="style2" type="text/css">.st0{fill:#00993b}.st1{fill:#e0001b}.st3{fill:#fff}</style><g id="g52" transform="translate(-588.01 -462)"><path id="path4" d="M690.13 579.59c0-6.43-5.38-11.62-11.81-11.64l.25-.03-60.57.03c-.81-.07-2.89-.41-4.59-2.13-1.94-1.97-2.05-4.38-2.05-4.82l-.01.17v-60.33c-.02-6.43-5.27-11.67-11.7-11.67s-11.62 5.34-11.64 11.76v-.09 78.79c0 6.43 5.2 11.64 11.62 11.67h78.44l.5-.03c6.43-.03 11.56-5.24 11.56-11.68" class="st0"/><path id="path6" d="M821.52 534.98c-4.55-4.55-12.02-4.41-16.58.12l.15-.2-42.81 42.85c-.62.53-2.33 1.76-4.75 1.74-2.76-.02-4.54-1.64-4.86-1.95l.11.12-42.6-42.6-.06-.06c-4.56-4.53-11.98-4.53-16.53.02s-4.44 11.99.09 16.55l-.07-.06 55.71 55.71c4.55 4.55 11.91 4.56 16.47.03l55.47-55.47.33-.38c4.53-4.56 4.48-11.87-.07-16.42" class="st1"/><path id="path8" d="M637.95 541.3c4.55 4.55 12.02 4.41 16.58-.12l-.15.2 42.81-42.85c.62-.53 2.33-1.76 4.75-1.74 2.76.02 4.54 1.64 4.86 1.95l-.11-.12 42.6 42.6.07.06c4.56 4.53 11.98 4.53 16.53-.02s4.44-11.99-.09-16.55l.06.06-55.71-55.71c-4.55-4.55-11.91-4.56-16.47-.03l-55.47 55.47-.33.38c-4.53 4.55-4.48 11.87.07 16.42" style="fill:#909295"/><path id="path10" d="M896.23 591.52h6.45l2.16-10.49c.19-.9.36-1.8.51-2.71s.3-1.79.44-2.64h.14c.12.85.25 1.73.41 2.64.15.91.32 1.81.51 2.71l2.27 10.49h6.55l4.11-23.1h-4.99l-1.59 10.81c-.17 1.2-.33 2.41-.48 3.61-.15 1.21-.31 2.43-.48 3.69h-.14c-.24-1.25-.47-2.49-.69-3.7-.22-1.22-.45-2.41-.69-3.6l-2.48-10.81h-4.43l-2.48 10.81c-.24 1.2-.47 2.42-.69 3.63-.22 1.22-.46 2.44-.69 3.67h-.14c-.14-1.23-.3-2.45-.46-3.67-.17-1.22-.32-2.43-.46-3.63l-1.6-10.81h-5.35zm32.06 0h14.81v-4.39h-9.6v-5.31h7.86v-4.36h-7.86v-4.64h9.25v-4.39h-14.46zm22.18-2.91c1.18 1.11 2.52 1.94 4.02 2.5s3.01.83 4.52.83c1.37 0 2.6-.19 3.68-.59 1.09-.39 2-.91 2.75-1.56.74-.65 1.31-1.4 1.7-2.27.39-.86.58-1.78.58-2.75 0-1.63-.41-2.94-1.22-3.93-.82-.99-1.93-1.77-3.35-2.34l-2.98-1.21c-.5-.21-.96-.41-1.38-.58-.42-.18-.8-.37-1.12-.57s-.57-.43-.74-.67-.27-.55-.27-.9c0-.66.27-1.17.8-1.54s1.25-.55 2.14-.55c.92 0 1.76.16 2.51.48.76.32 1.51.77 2.27 1.36l2.66-3.29c-.99-.99-2.14-1.75-3.45-2.27q-1.965-.78-3.99-.78c-1.21 0-2.31.18-3.31.53s-1.87.84-2.6 1.47-1.3 1.36-1.7 2.2q-.6 1.26-.6 2.67c0 .85.13 1.61.39 2.29q.39 1.005 1.05 1.77c.44.51.93.95 1.49 1.33.55.38 1.13.69 1.72.92l3.01 1.28c.5.21.95.41 1.36.58.41.18.77.37 1.06.57.3.2.52.43.67.69s.23.57.23.92c0 .69-.27 1.23-.8 1.63q-.795.6-2.43.6c-.97 0-1.95-.22-2.96-.67-1-.45-1.92-1.03-2.75-1.74zm30.12 2.91h5.24v-18.71h6.34v-4.39h-17.93v4.39h6.34v18.71zm19.17 0h5.21v-8.96h8.01v-4.39h-8.01v-5.35h9.35v-4.39h-14.56zm26.66-9.57.57-2.13c.33-1.16.64-2.38.94-3.67s.59-2.55.87-3.77h.14c.31 1.2.61 2.46.92 3.76q.465 1.95.96 3.69l.53 2.13h-4.93zm7.4 9.57h5.53l-7.23-23.1h-6.27l-7.23 23.1h5.32l1.42-5.49h7.05zm12.61 0h14.35v-4.39h-9.14v-18.71h-5.21zm21.69 0h14.81v-4.39h-9.6v-5.31h7.86v-4.36h-7.86v-4.64h9.25v-4.39h-14.45v23.09zm23.54 0h4.96v-8.18c0-1.37-.08-2.79-.23-4.25s-.29-2.83-.41-4.11h.14l2.27 5.03 6.02 11.51h5.35v-23.1h-4.96v8.15c0 1.37.08 2.81.23 4.32s.29 2.88.41 4.11h-.14l-2.27-5.1-6.02-11.48h-5.35z"/><path id="path12" d="M891.97 554.67h4.96v-8.18c0-1.37-.08-2.79-.23-4.25s-.29-2.83-.41-4.11h.14l2.27 5.03 6.02 11.52h5.35v-23.1h-4.96v8.15c0 1.37.08 2.81.23 4.32s.29 2.88.41 4.11h-.14l-2.27-5.1-6.02-11.48h-5.35zm40.88-.4a9.3 9.3 0 0 0 3.31-2.39c.92-1.04 1.64-2.3 2.14-3.79.51-1.49.76-3.18.76-5.07 0-1.87-.25-3.54-.76-5.01-.51-1.48-1.22-2.72-2.14-3.74a9.1 9.1 0 0 0-3.31-2.32c-1.29-.53-2.71-.8-4.27-.8s-2.98.27-4.27.8-2.39 1.3-3.31 2.3-1.64 2.24-2.14 3.72c-.51 1.48-.76 3.16-.76 5.05s.25 3.58.76 5.07 1.22 2.75 2.14 3.79a9.2 9.2 0 0 0 3.31 2.39c1.29.55 2.71.83 4.27.83s2.98-.28 4.27-.83m-8.03-5.71c-.92-1.36-1.38-3.21-1.38-5.54 0-2.32.46-4.12 1.38-5.42s2.17-1.95 3.76-1.95c1.58 0 2.83.65 3.76 1.95.92 1.3 1.38 3.11 1.38 5.42 0 2.34-.46 4.19-1.38 5.54-.92 1.36-2.17 2.04-3.76 2.04-1.58 0-2.83-.68-3.76-2.04m27.47-12.84h2.69c1.37 0 2.41.23 3.14.67q1.08.675 1.08 2.37c0 1.13-.36 1.99-1.08 2.57s-1.77.87-3.14.87h-2.69zm13.15 18.95-5.24-9.25c1.25-.54 2.25-1.36 2.99-2.46s1.12-2.5 1.12-4.2c0-1.37-.24-2.51-.71-3.44a6 6 0 0 0-1.91-2.22c-.8-.55-1.74-.95-2.82-1.19s-2.23-.35-3.46-.35h-8.33v23.1h5.21v-8.33h2.87l4.43 8.33h5.85zm7.6 0h6.8c1.7 0 3.24-.24 4.62-.71s2.57-1.19 3.56-2.14c.99-.96 1.76-2.17 2.3-3.63s.82-3.19.82-5.17-.27-3.7-.82-5.14c-.54-1.44-1.32-2.63-2.34-3.56s-2.23-1.62-3.65-2.07-3.01-.67-4.78-.67h-6.52v23.09zm5.21-4.21v-14.67h.99c.99 0 1.89.12 2.69.35.8.24 1.49.63 2.05 1.19.57.56 1.01 1.3 1.33 2.23s.48 2.09.48 3.46q0 2.085-.48 3.51c-.32.95-.76 1.71-1.33 2.29s-1.25 1-2.05 1.26-1.7.39-2.69.39h-.99zm26.6-14.74h2.69c1.37 0 2.41.23 3.13.67q1.08.675 1.08 2.37c0 1.13-.36 1.99-1.08 2.57s-1.77.87-3.13.87h-2.69zm13.14 18.95-5.24-9.25c1.25-.54 2.25-1.36 2.99-2.46s1.12-2.5 1.12-4.2c0-1.37-.24-2.51-.71-3.44a6 6 0 0 0-1.91-2.22c-.8-.55-1.74-.95-2.82-1.19s-2.23-.35-3.45-.35h-8.33v23.1h5.21v-8.33h2.87l4.43 8.33h5.84zm7.61 0h5.21v-9.64h7.97v9.64h5.24v-23.1h-5.24v8.89h-7.97v-8.89h-5.21zm27.5 0h14.81v-4.39h-9.6v-5.32h7.87v-4.36h-7.87v-4.64h9.25v-4.39h-14.45v23.1zm23.82 0h5.21v-23.1h-5.21zm14.74 0h4.96v-8.18c0-1.37-.08-2.79-.23-4.25s-.29-2.83-.41-4.11h.14l2.27 5.03 6.02 11.52h5.35v-23.1h-4.96v8.15c0 1.37.08 2.81.23 4.32s.29 2.88.41 4.11h-.14l-2.27-5.1-6.02-11.48h-5.35z"/><path id="path14" d="M826.41 517.82h14.35v-4.39h-9.14v-18.71h-5.21zm28.52-9.56.57-2.13c.33-1.16.64-2.38.94-3.67.29-1.29.59-2.55.87-3.77h.14c.31 1.2.61 2.46.92 3.76s.63 2.53.96 3.68l.53 2.13zm7.4 9.56h5.53l-7.23-23.1h-6.27l-7.23 23.1h5.32l1.42-5.49h7.05zm12.61 0h4.96v-8.18c0-1.37-.08-2.79-.23-4.25s-.29-2.84-.41-4.11h.14l2.27 5.03 6.02 11.51h5.35v-23.1h-4.96v8.15c0 1.37.08 2.81.23 4.32s.29 2.88.41 4.11h-.14l-2.27-5.1-6.02-11.48h-5.35zm27.64 0h6.8c1.7 0 3.24-.23 4.62-.71 1.38-.47 2.57-1.19 3.56-2.14.99-.96 1.76-2.17 2.3-3.63s.82-3.19.82-5.17-.27-3.7-.82-5.14c-.54-1.44-1.32-2.63-2.34-3.56s-2.23-1.62-3.65-2.07-3.01-.67-4.78-.67h-6.52v23.09zm5.21-4.21v-14.67h.99c.99 0 1.89.12 2.69.35.8.24 1.49.63 2.06 1.19s1.01 1.3 1.33 2.23q.48 1.395.48 3.45 0 2.085-.48 3.51c-.32.95-.76 1.71-1.33 2.29s-1.25 1-2.06 1.26c-.8.26-1.7.39-2.69.39zm21.38 4.21h14.81v-4.39h-9.6v-5.31h7.87v-4.36h-7.87v-4.64h9.25v-4.39h-14.46zm22.18-2.9c1.18 1.11 2.52 1.94 4.02 2.5s3.01.83 4.52.83c1.37 0 2.6-.2 3.68-.58 1.09-.39 2-.91 2.74-1.56s1.31-1.4 1.7-2.27c.39-.86.58-1.78.58-2.75 0-1.63-.41-2.94-1.22-3.93-.82-.99-1.93-1.77-3.35-2.34l-2.98-1.21c-.5-.21-.96-.41-1.38-.58-.42-.18-.8-.37-1.12-.57s-.57-.42-.74-.67a1.5 1.5 0 0 1-.27-.9c0-.66.27-1.17.8-1.54s1.25-.55 2.14-.55q1.38 0 2.52.48c.76.32 1.51.77 2.27 1.36l2.66-3.3c-.99-.99-2.14-1.75-3.45-2.27q-1.965-.78-3.99-.78c-1.2 0-2.31.18-3.31.53s-1.87.85-2.6 1.47c-.73.63-1.3 1.36-1.7 2.2s-.6 1.73-.6 2.68c0 .85.13 1.61.39 2.29s.61 1.26 1.05 1.77.93.95 1.49 1.33c.55.38 1.13.68 1.72.92l3.01 1.28c.5.21.95.41 1.36.58.41.18.77.37 1.06.57s.52.43.67.69.23.57.23.92c0 .68-.27 1.23-.8 1.63q-.795.6-2.43.6c-.97 0-1.96-.22-2.96-.67s-1.92-1.03-2.75-1.74zm30.59-6.66.57-2.13c.33-1.16.64-2.38.94-3.67s.59-2.55.87-3.77h.14c.31 1.2.61 2.46.92 3.76s.63 2.53.96 3.68l.53 2.13zm7.4 9.56h5.53l-7.23-23.1h-6.27l-7.23 23.1h5.31l1.42-5.49h7.05zm17.82-18.95h2.69c1.37 0 2.41.23 3.14.67q1.08.675 1.08 2.37c0 1.13-.36 1.99-1.08 2.57s-1.77.87-3.14.87h-2.69zm13.14 18.95-5.24-9.25c1.25-.54 2.25-1.36 2.99-2.46s1.12-2.5 1.12-4.2c0-1.37-.24-2.52-.71-3.44s-1.11-1.66-1.91-2.21-1.74-.95-2.82-1.19-2.23-.35-3.45-.35h-8.33v23.1h5.21v-8.32h2.87l4.43 8.32zm7.15-6.28c.57 1.48 1.35 2.71 2.34 3.7a9.9 9.9 0 0 0 3.47 2.25c1.32.51 2.73.76 4.22.76 1.44 0 2.78-.28 4.02-.85s2.34-1.42 3.31-2.55l-2.87-3.15c-.57.61-1.2 1.11-1.91 1.49s-1.54.57-2.48.57c-1.7 0-3.06-.66-4.07-1.97s-1.52-3.16-1.52-5.54c0-1.16.15-2.2.44-3.12.3-.92.7-1.7 1.22-2.34s1.13-1.13 1.82-1.47q1.05-.51 2.25-.51c.8 0 1.51.15 2.11.46s1.2.73 1.79 1.28l2.87-3.22c-.78-.8-1.75-1.51-2.92-2.11s-2.47-.9-3.92-.9c-1.49 0-2.9.27-4.23.82-1.34.54-2.5 1.33-3.51 2.37-1 1.04-1.8 2.31-2.39 3.81s-.89 3.21-.89 5.12.28 3.62.85 5.1m24.89 6.28h5.21v-9.64h7.97v9.64h5.24v-23.1h-5.24v8.89h-7.97v-8.89h-5.21zm27.96 0h5.21v-23.1h-5.21zm19.23 0h6.27l6.94-23.1h-5.31l-2.73 10.77a181 181 0 0 0-.92 3.7c-.28 1.19-.59 2.43-.92 3.7h-.14c-.35-1.28-.67-2.51-.94-3.7s-.58-2.43-.94-3.7l-2.76-10.77h-5.53z"/><path id="path16" d="M1332.09 462v82.27c0 41.23-33.27 74.67-74.29 74.67s-74.29-33.44-74.29-74.67V462Z"/><path id="path18" d="M1329.32 544.27c0 39.72-32.04 71.9-71.52 71.9s-71.52-32.19-71.52-71.9v-79.5h143.04z" class="st3"/><path id="path20" d="M1255.96 494.96v49.31c0 24.87-13.24 46.62-32.99 58.53a68.4 68.4 0 0 1-24.22-24.97c3.59-3.74 7.1-7.53 9.84-11.97 5.57-9.04 6.4-20.48 13.01-28.9 6.11-7.8 16.9-9.96 22.65-17.62 5.47-7.31 7.15-16.56 11.71-24.38" class="st0"/><path id="path22" d="M1189.98 468.46h56.11c-2.09 2.29-4.12 4.64-5.98 7.12-7.07 9.44-6.37 22.61-13.52 31.85-6.24 8.07-16.82 10.19-22.66 17.64-6.63 8.45-7.05 20.07-13.29 28.72-.43-3.11-.66-6.29-.66-9.52z" class="st0"/><path id="path24" d="M1272.46 598.17c.91.98 1.53 2.2 1.8 3.51-.98.9-2.2 1.51-3.5 1.78.18-1.08.05-2.16-.56-3.11 1.02-.42 1.76-1.21 2.26-2.18" class="st0"/><path id="path26" d="M1264.08 582.97c1.22-.56 2.57-.78 3.9-.63.55 1.21.76 2.56.61 3.88-.97-.51-2.04-.71-3.13-.43-.09-1.1-.61-2.05-1.38-2.82" class="st0"/><path id="path28" d="M1247.03 586.24c-.16-1.33.05-2.68.6-3.9 1.32-.15 2.67.07 3.88.62-.78.77-1.31 1.72-1.38 2.84-1.06-.26-2.12-.06-3.1.44" class="st0"/><path id="path30" d="M1244.85 603.46a7.27 7.27 0 0 1-3.5-1.78c.27-1.3.89-2.51 1.79-3.49.49.97 1.22 1.76 2.26 2.18-.6.94-.73 2.01-.55 3.09" class="st0"/><path id="path32" d="M1260.58 610.84a7.33 7.33 0 0 1-2.78 2.8 7.3 7.3 0 0 1-2.77-2.78c1.08-.16 2.07-.62 2.78-1.49.72.83 1.7 1.29 2.77 1.47" class="st0"/><path id="path34" d="M1249.61 607.62c-3.01-2.18-4.13-5.98-1.24-7.44.2-.51 0-1.11-.46-1.4-3.2.52-4.52-3.21-3.37-6.75 1.15-3.53 4.41-5.78 6.69-3.48.55.03 1.05-.34 1.2-.87-1.48-2.89 1.66-5.29 5.38-5.29s6.86 2.41 5.38 5.29c.14.53.65.9 1.19.87 2.29-2.3 5.54-.06 6.69 3.48 1.15 3.53-.17 7.26-3.37 6.75-.46.3-.65.89-.46 1.4 2.89 1.46 1.77 5.26-1.24 7.44s-6.96 2.08-7.46-1.12c-.42-.34-1.05-.34-1.48 0-.49 3.2-4.45 3.3-7.45 1.12" class="st1"/><path id="path36" d="M1259.65 468.46h65.98v75.81c0 24.87-13.24 46.62-32.99 58.53-19.75-11.92-32.99-33.66-32.99-58.53z" class="st1"/><path id="path38" d="M1301.55 580.99c0-2.29 2.25-4.26 2.47-4.45.11.02.23.03.34.03a2.22 2.22 0 0 0 2.01-3.16c6.1-10.88 4.48-12.46-4.97-20.18-2.59-2.11-3.38-8.29-3.38-13.97-3.76-8.78-13.91-7.76-17.73-16.37l4.44.24c2.27.12 3.87-1.25 4.63-2.38.71-1.06.01-2.5-1.13-2.11-.52 1.42-1.91 2.55-3.44 2.47l-11.02-.6c-2.19 2.18-1.72 5.33 2.11 6.98v1.65h2.63c.94 2.97.97 5.64.1 7.43-2.1 0-4.46-2.5-4.46-2.5.01-.26.04-.48.04-.7 0-1.23-1-2.22-2.22-2.22-.17 0-.34.02-.5.06-1.25-1.98-1.05-6.23-4.28-10.95l2.45-2.98 8.95-3.01c.26-10.49 12.32-12.92 14.17-20.59 2.58 0 4.19-.76 5.44-3.22.32-.64.17-2.13-1.44-1.81-.9 2.54-2.09 2.99-3.76 2.99-4.35 0-7.85-.73-8.44 1.2-.98 3.27-5.51 1.22-5.51 1.22l1.11-.81c.09.01.18.02.28.02.84 0 1.52-.44 1.52-.99s-.68-.99-1.52-.99-1.52.44-1.52.99c0 .03 0 .07.01.1l-1.04.75c-1.34 0-1.57-1.05-1.61-1.55.53 0 .93-.44.93-.98s-.4-.98-.89-.98c.02-.4.25-1.23 1.21-1.99l7.73-6.13c1.12-.89 3.35-2.09 4.35-2.6-.12-1.68.52-3.9.52-5.47 0 0 2.27.97 3.2 3.18.69 1.63.25 2.65-.05 3.45.42.66 2.17.67 2.38-1.02.08-.67.07-1.45-.18-2.36 3.01.33 7.24 1.36 13.75.7-1.32 1.53-3.01 2.63-4.8 3.43 3.24.77 7.23 2.36 9.23 5.68-1.56.8-3.27 1.32-4.97 1.65 3.11 2.71 4.33 6.76 6.99 8.4-3.45.96-6.3.69-8.54-.07 1.08 2.21 2.76 4.79 5.06 5.97-3.13 1.41-6.18 2.21-8.53 2.67.74 1.23 1.82 2.75 3.14 3.75-2.43.09-4.39.77-5.52 1.27-.2 2.84-.99 8.74 6.22 16.35 9.6 7.26 12 12.76 4.43 22.52 0 4.95.83 6.94 3.39 11.99-.22.49-1.27 2.87-2.32 5.77-1.15 3.18-2.01 6.68-2.01 9.76 0 0-1.63-.01-1.63 1.72v2.63c-3.01.94-6.05.98-7.82.12" class="st3"/><path id="path40" d="M1264.19 516.93c-1.39-1.37-1.4-4.31-1.39-4.84.2-.1.38-.24.54-.4.87-.87.87-2.27 0-3.14-.13-.13-.28-.24-.43-.33 1.25-3.7 3.69-5.61 4.68-10.86h3.82l9.09 7.13c-1.62 1.83-2.96 3.97-3.58 6.69l-4.84-9.01c-3.11 0-5.01 2.57-3.4 6.41l-1.17 1.18 1.8 1.91c-1.34 2.65-3.15 4.51-5.12 5.26" class="st3"/><path id="path42" d="M1278.44 558.66h12.88c0-5.31-3.94-8.79-3.94-15 0-4.06 1.6-6.61 5.83-7.83 1.06.96 2.01 2.19 2.8 3.86.04 5.44.95 9.17 2.24 11.87 0 0-2.93 2.23-2.93 10.42 0 0-11.62-.53-13.01.98h-1.83v2.62c-2.86.94-5.53.97-7.43.1 0-2.33 2.5-4.45 2.5-4.45.26.01.47.04.7.04 1.23 0 2.22-.99 2.22-2.22q0-.195-.03-.39" class="st3"/><path id="path44" d="M1322.91 512.26c0 4.42-4 6.34-4 9.64 0 3.91 3.86 5.8 3.86 9.57 0 3.9-3.07 4.56-5.05 3.89 0 0 1.24-.3 1.24-1.82 0-4.62-9.9-4.38-9.9-11.63 0-3.79 2.69-6.82 2.69-9.05 0-1.14-.86-2.74-2.32-3.25 2.02-1.44 5.43-.56 6.3 1.64.7-1.83 1.35-4.55.52-7.2 4.65 1.78 6.64 4.81 6.65 8.2v.01z" class="st3"/><path id="path46" d="M1285.15 484.67c1.04 1.73 3.68 0 3.68 0s-3.2-3.03-3.68 0" class="st1"/><path id="path48" d="M1264.96 596.33a7.16 7.16 0 1 1-7.16-7.16 7.16 7.16 0 0 1 7.16 7.16" class="st3"/><path id="path50" d="M1257.8 600.91a4.58 4.58 0 1 1 0-9.16 4.58 4.58 0 1 1 0 9.16" class="st0"/></g></svg>